# xmcd CD database file
# Generated: Don Mai 19 10:10:46 2005 by KSCD
# 
# Track frame offsets:
#       150
#       19092
#       42380
#       69194
#       94944
#       123838
#       132046
#       156808
#       181062
#       204984
#       224668
#       260832
#       287900
#
# Disc length: 4348 seconds
#
# Revision: 2
# Processed by: cddbd v1.5.1PL0 Copyright (c) Steve Scherf et al.
# Submitted via: Kscd 1.3.3
#
DISCID=bc10fa0d
DTITLE=Engerling - Engerling spielt Stones-Songs im Miles
DYEAR=1900
DGENRE=
TTITLE0=Sway
TTITLE1=Luxury
TTITLE2=Gimme Shelter
TTITLE3=Waiting On A Friend
TTITLE4=Dead Flowers
TTITLE5=She Said Yeah
TTITLE6=Sweet Virginia
TTITLE7=Sitting On A Fence
TTITLE8=Love In Vain
TTITLE9=The Spider
TTITLE10=Play With Fire
TTITLE11=2000 Lightyears From Home
TTITLE12=Out Of Time
EXTD=
EXTT0=
EXTT1=
EXTT2=
EXTT3=
EXTT4=
EXTT5=
EXTT6=
EXTT7=
EXTT8=
EXTT9=
EXTT10=
EXTT11=
EXTT12=
PLAYORDER=
